<svg width="171" height="19" viewBox="0 0 171 19" fill="none" xmlns="http://www.w3.org/2000/svg">
<path d="M0.577 14V1.574H8.082V3.436H2.781V6.951H7.303V8.813H2.781V14H0.577ZM13.5947 14.228C12.822 14.228 12.1 14.038 11.4287 13.658C10.7573 13.2653 10.2127 12.708 9.79467 11.986C9.37667 11.2513 9.16767 10.371 9.16767 9.345C9.16767 8.30633 9.37667 7.426 9.79467 6.704C10.2127 5.96933 10.7573 5.412 11.4287 5.032C12.1 4.63933 12.822 4.443 13.5947 4.443C14.38 4.443 15.1083 4.63933 15.7797 5.032C16.451 5.412 16.9957 5.96933 17.4137 6.704C17.8317 7.426 18.0407 8.30633 18.0407 9.345C18.0407 10.371 17.8317 11.2513 17.4137 11.986C16.9957 12.708 16.451 13.2653 15.7797 13.658C15.1083 14.038 14.38 14.228 13.5947 14.228ZM13.5947 12.442C14.2787 12.442 14.817 12.157 15.2097 11.587C15.6023 11.017 15.7987 10.2697 15.7987 9.345C15.7987 8.40767 15.6023 7.654 15.2097 7.084C14.817 6.514 14.2787 6.229 13.5947 6.229C12.9107 6.229 12.3723 6.514 11.9797 7.084C11.5997 7.654 11.4097 8.40767 11.4097 9.345C11.4097 10.2697 11.5997 11.017 11.9797 11.587C12.3723 12.157 12.9107 12.442 13.5947 12.442ZM22.3314 14.228C21.5587 14.228 21.0077 13.9937 20.6784 13.525C20.3617 13.0563 20.2034 12.4167 20.2034 11.606V0.585999H22.3884V11.72C22.3884 11.986 22.4391 12.176 22.5404 12.29C22.6417 12.3913 22.7494 12.442 22.8634 12.442C22.9141 12.442 22.9584 12.442 22.9964 12.442C23.0471 12.4293 23.1167 12.4167 23.2054 12.404L23.4904 14.038C23.3637 14.0887 23.1991 14.133 22.9964 14.171C22.8064 14.209 22.5847 14.228 22.3314 14.228ZM27.4896 14.228C26.7169 14.228 26.1659 13.9937 25.8366 13.525C25.5199 13.0563 25.3616 12.4167 25.3616 11.606V0.585999H27.5466V11.72C27.5466 11.986 27.5973 12.176 27.6986 12.29C27.7999 12.3913 27.9076 12.442 28.0216 12.442C28.0723 12.442 28.1166 12.442 28.1546 12.442C28.2053 12.4293 28.2749 12.4167 28.3636 12.404L28.6486 14.038C28.5219 14.0887 28.3573 14.133 28.1546 14.171C27.9646 14.209 27.7429 14.228 27.4896 14.228ZM34.3388 14.228C33.5661 14.228 32.8441 14.038 32.1728 13.658C31.5015 13.2653 30.9568 12.708 30.5388 11.986C30.1208 11.2513 29.9118 10.371 29.9118 9.345C29.9118 8.30633 30.1208 7.426 30.5388 6.704C30.9568 5.96933 31.5015 5.412 32.1728 5.032C32.8441 4.63933 33.5661 4.443 34.3388 4.443C35.1241 4.443 35.8525 4.63933 36.5238 5.032C37.1951 5.412 37.7398 5.96933 38.1578 6.704C38.5758 7.426 38.7848 8.30633 38.7848 9.345C38.7848 10.371 38.5758 11.2513 38.1578 11.986C37.7398 12.708 37.1951 13.2653 36.5238 13.658C35.8525 14.038 35.1241 14.228 34.3388 14.228ZM34.3388 12.442C35.0228 12.442 35.5611 12.157 35.9538 11.587C36.3465 11.017 36.5428 10.2697 36.5428 9.345C36.5428 8.40767 36.3465 7.654 35.9538 7.084C35.5611 6.514 35.0228 6.229 34.3388 6.229C33.6548 6.229 33.1165 6.514 32.7238 7.084C32.3438 7.654 32.1538 8.40767 32.1538 9.345C32.1538 10.2697 32.3438 11.017 32.7238 11.587C33.1165 12.157 33.6548 12.442 34.3388 12.442ZM42.3752 14L39.9052 4.671H42.1092L43.2302 9.516C43.3316 9.95933 43.4139 10.4027 43.4772 10.846C43.5532 11.2893 43.6356 11.739 43.7242 12.195H43.8002C43.8889 11.739 43.9776 11.2893 44.0662 10.846C44.1676 10.39 44.2752 9.94667 44.3892 9.516L45.6052 4.671H47.6002L48.8352 9.516C48.9492 9.95933 49.0569 10.4027 49.1582 10.846C49.2596 11.2893 49.3609 11.739 49.4622 12.195H49.5382C49.6269 11.739 49.7092 11.2893 49.7852 10.846C49.8612 10.4027 49.9436 9.95933 50.0322 9.516L51.1532 4.671H53.2052L50.8302 14H48.2272L47.1442 9.649C47.0429 9.20567 46.9479 8.76867 46.8592 8.338C46.7706 7.89467 46.6756 7.426 46.5742 6.932H46.4982C46.4096 7.426 46.3209 7.89467 46.2322 8.338C46.1436 8.78133 46.0486 9.22467 45.9472 9.668L44.8832 14H42.3752ZM65.3698 17.116C64.4325 17.116 63.5458 16.9703 62.7098 16.679C61.8738 16.3877 61.1328 15.9443 60.4868 15.349C59.8408 14.7663 59.3342 14.038 58.9668 13.164C58.5995 12.29 58.4158 11.2767 58.4158 10.124C58.4158 8.81933 58.6312 7.64133 59.0618 6.59C59.5052 5.526 60.1068 4.614 60.8668 3.854C61.6268 3.094 62.5008 2.51133 63.4888 2.106C64.4895 1.70067 65.5472 1.498 66.6618 1.498C67.9918 1.498 69.1382 1.77667 70.1008 2.334C71.0762 2.87867 71.8298 3.645 72.3618 4.633C72.8938 5.60833 73.1598 6.742 73.1598 8.034C73.1598 8.88267 73.0332 9.63 72.7798 10.276C72.5392 10.9093 72.2162 11.4413 71.8108 11.872C71.4182 12.3027 70.9812 12.6257 70.4998 12.841C70.0312 13.0563 69.5625 13.164 69.0938 13.164C68.5492 13.164 68.0868 13.0437 67.7068 12.803C67.3268 12.5497 67.0925 12.1887 67.0038 11.72H66.9658C66.6872 12.1 66.3325 12.4103 65.9018 12.651C65.4838 12.8917 65.0722 13.012 64.6668 13.012C63.9702 13.012 63.3938 12.765 62.9378 12.271C62.4945 11.777 62.2728 11.0993 62.2728 10.238C62.2728 9.69333 62.3615 9.155 62.5388 8.623C62.7288 8.091 62.9885 7.60333 63.3178 7.16C63.6472 6.71667 64.0398 6.362 64.4958 6.096C64.9645 5.83 65.4712 5.697 66.0158 5.697C66.6745 5.697 67.1685 6.00733 67.4978 6.628H67.5358L67.7828 5.849H69.1698L68.3528 9.858C68.0362 11.1373 68.3528 11.777 69.3028 11.777C69.6955 11.777 70.0755 11.6313 70.4428 11.34C70.8102 11.036 71.1142 10.6117 71.3548 10.067C71.5955 9.52233 71.7158 8.87 71.7158 8.11C71.7158 7.14733 71.5258 6.27333 71.1458 5.488C70.7785 4.69 70.2085 4.05667 69.4358 3.588C68.6758 3.10667 67.6942 2.866 66.4908 2.866C65.6548 2.866 64.8442 3.037 64.0588 3.379C63.2862 3.70833 62.5895 4.18967 61.9688 4.823C61.3482 5.45633 60.8542 6.21633 60.4868 7.103C60.1195 7.977 59.9358 8.95867 59.9358 10.048C59.9358 11.2893 60.1892 12.3343 60.6958 13.183C61.2025 14.0317 61.8802 14.665 62.7288 15.083C63.5775 15.5137 64.5148 15.729 65.5408 15.729C66.0728 15.729 66.5985 15.653 67.1178 15.501C67.6372 15.3617 68.1058 15.178 68.5238 14.95L69.0368 16.166C67.9222 16.7993 66.6998 17.116 65.3698 17.116ZM65.1228 11.587C65.3508 11.587 65.5852 11.511 65.8258 11.359C66.0792 11.207 66.3452 10.9537 66.6238 10.599L67.1178 7.806C66.8392 7.36267 66.4908 7.141 66.0728 7.141C65.6422 7.141 65.2685 7.29933 64.9518 7.616C64.6352 7.93267 64.3882 8.319 64.2108 8.775C64.0462 9.231 63.9638 9.67433 63.9638 10.105C63.9638 10.6117 64.0652 10.9853 64.2678 11.226C64.4832 11.4667 64.7682 11.587 65.1228 11.587ZM77.0168 14L74.5468 4.671H76.7508L77.8718 9.516C77.9732 9.95933 78.0555 10.4027 78.1188 10.846C78.1948 11.2893 78.2772 11.739 78.3658 12.195H78.4418C78.5305 11.739 78.6192 11.2893 78.7078 10.846C78.8092 10.39 78.9168 9.94667 79.0308 9.516L80.2468 4.671H82.2418L83.4768 9.516C83.5908 9.95933 83.6985 10.4027 83.7998 10.846C83.9012 11.2893 84.0025 11.739 84.1038 12.195H84.1798C84.2685 11.739 84.3508 11.2893 84.4268 10.846C84.5028 10.4027 84.5852 9.95933 84.6738 9.516L85.7948 4.671H87.8468L85.4718 14H82.8688L81.7858 9.649C81.6845 9.20567 81.5895 8.76867 81.5008 8.338C81.4122 7.89467 81.3172 7.426 81.2158 6.932H81.1398C81.0512 7.426 80.9625 7.89467 80.8738 8.338C80.7852 8.78133 80.6902 9.22467 80.5888 9.668L79.5248 14H77.0168ZM89.6907 14V4.671H91.4957L91.6477 6.324H91.7237C92.053 5.716 92.452 5.25367 92.9207 4.937C93.3894 4.60767 93.8707 4.443 94.3647 4.443C94.808 4.443 95.1627 4.50633 95.4287 4.633L95.0487 6.533C94.884 6.48233 94.732 6.44433 94.5927 6.419C94.4534 6.39367 94.2824 6.381 94.0797 6.381C93.7124 6.381 93.326 6.52667 92.9207 6.818C92.5154 7.09667 92.167 7.59067 91.8757 8.3V14H89.6907ZM96.7786 14V4.671H98.9636V14H96.7786ZM97.8806 3.037C97.4879 3.037 97.1713 2.923 96.9306 2.695C96.6899 2.467 96.5696 2.163 96.5696 1.783C96.5696 1.41567 96.6899 1.118 96.9306 0.889999C97.1713 0.662 97.4879 0.548 97.8806 0.548C98.2733 0.548 98.5899 0.662 98.8306 0.889999C99.0713 1.118 99.1916 1.41567 99.1916 1.783C99.1916 2.163 99.0713 2.467 98.8306 2.695C98.5899 2.923 98.2733 3.037 97.8806 3.037ZM105.038 14.228C103.962 14.228 103.195 13.9177 102.739 13.297C102.296 12.6637 102.074 11.8467 102.074 10.846V6.4H100.744V4.766L102.188 4.671L102.454 2.125H104.278V4.671H106.653V6.4H104.278V10.846C104.278 11.9353 104.715 12.48 105.589 12.48C105.754 12.48 105.925 12.461 106.102 12.423C106.28 12.3723 106.432 12.3217 106.558 12.271L106.938 13.886C106.685 13.9747 106.394 14.0507 106.064 14.114C105.748 14.19 105.406 14.228 105.038 14.228ZM108.616 14V4.671H110.801V14H108.616ZM109.718 3.037C109.326 3.037 109.009 2.923 108.768 2.695C108.528 2.467 108.407 2.163 108.407 1.783C108.407 1.41567 108.528 1.118 108.768 0.889999C109.009 0.662 109.326 0.548 109.718 0.548C110.111 0.548 110.428 0.662 110.668 0.889999C110.909 1.118 111.029 1.41567 111.029 1.783C111.029 2.163 110.909 2.467 110.668 2.695C110.428 2.923 110.111 3.037 109.718 3.037ZM113.589 14V4.671H115.394L115.546 5.925H115.622C116.04 5.51967 116.496 5.17133 116.99 4.88C117.484 4.58867 118.048 4.443 118.681 4.443C119.682 4.443 120.41 4.766 120.866 5.412C121.322 6.058 121.55 6.97 121.55 8.148V14H119.365V8.433C119.365 7.66033 119.251 7.11567 119.023 6.799C118.795 6.48233 118.421 6.324 117.902 6.324C117.497 6.324 117.136 6.42533 116.819 6.628C116.515 6.818 116.167 7.103 115.774 7.483V14H113.589ZM127.47 18.123C126.735 18.123 126.07 18.0343 125.475 17.857C124.892 17.6797 124.43 17.4073 124.088 17.04C123.759 16.6853 123.594 16.2357 123.594 15.691C123.594 14.9183 124.037 14.2533 124.924 13.696V13.62C124.683 13.468 124.481 13.2653 124.316 13.012C124.164 12.7587 124.088 12.442 124.088 12.062C124.088 11.6947 124.189 11.3653 124.392 11.074C124.607 10.77 124.848 10.523 125.114 10.333V10.257C124.797 10.0163 124.512 9.68067 124.259 9.25C124.018 8.81933 123.898 8.33167 123.898 7.787C123.898 7.065 124.069 6.457 124.411 5.963C124.753 5.469 125.203 5.09533 125.76 4.842C126.33 4.576 126.938 4.443 127.584 4.443C127.837 4.443 128.078 4.46833 128.306 4.519C128.547 4.557 128.762 4.60767 128.952 4.671H132.296V6.286H130.586C130.738 6.46333 130.865 6.69133 130.966 6.97C131.067 7.236 131.118 7.53367 131.118 7.863C131.118 8.547 130.96 9.12967 130.643 9.611C130.326 10.0797 129.902 10.4343 129.37 10.675C128.838 10.9157 128.243 11.036 127.584 11.036C127.381 11.036 127.172 11.017 126.957 10.979C126.742 10.941 126.526 10.8777 126.311 10.789C126.172 10.9157 126.058 11.0423 125.969 11.169C125.893 11.2957 125.855 11.4667 125.855 11.682C125.855 11.948 125.963 12.157 126.178 12.309C126.406 12.461 126.805 12.537 127.375 12.537H129.028C130.155 12.537 131.004 12.7207 131.574 13.088C132.157 13.4427 132.448 14.0253 132.448 14.836C132.448 15.444 132.245 15.995 131.84 16.489C131.435 16.9957 130.858 17.3947 130.111 17.686C129.364 17.9773 128.483 18.123 127.47 18.123ZM127.584 9.668C128.027 9.668 128.407 9.50333 128.724 9.174C129.041 8.84467 129.199 8.38233 129.199 7.787C129.199 7.20433 129.041 6.75467 128.724 6.438C128.42 6.10867 128.04 5.944 127.584 5.944C127.128 5.944 126.742 6.10233 126.425 6.419C126.108 6.73567 125.95 7.19167 125.95 7.787C125.95 8.38233 126.108 8.84467 126.425 9.174C126.742 9.50333 127.128 9.668 127.584 9.668ZM127.812 16.698C128.559 16.698 129.167 16.546 129.636 16.242C130.105 15.938 130.339 15.5897 130.339 15.197C130.339 14.8297 130.193 14.5827 129.902 14.456C129.623 14.3293 129.218 14.266 128.686 14.266H127.413C126.906 14.266 126.482 14.2217 126.14 14.133C125.659 14.5003 125.418 14.912 125.418 15.368C125.418 15.786 125.633 16.109 126.064 16.337C126.495 16.5777 127.077 16.698 127.812 16.698ZM136.695 14.228C136.062 14.228 135.428 14.1077 134.795 13.867C134.162 13.6137 133.617 13.3033 133.161 12.936L134.187 11.53C134.605 11.8467 135.023 12.1 135.441 12.29C135.859 12.48 136.302 12.575 136.771 12.575C137.278 12.575 137.651 12.4673 137.892 12.252C138.133 12.0367 138.253 11.7707 138.253 11.454C138.253 11.188 138.152 10.9727 137.949 10.808C137.759 10.6307 137.512 10.4787 137.208 10.352C136.904 10.2127 136.587 10.0797 136.258 9.953C135.853 9.801 135.447 9.61733 135.042 9.402C134.649 9.174 134.326 8.889 134.073 8.547C133.82 8.19233 133.693 7.75533 133.693 7.236C133.693 6.41267 133.997 5.74133 134.605 5.222C135.213 4.70267 136.036 4.443 137.075 4.443C137.734 4.443 138.323 4.557 138.842 4.785C139.361 5.013 139.811 5.27267 140.191 5.564L139.184 6.894C138.855 6.65333 138.519 6.46333 138.177 6.324C137.848 6.172 137.499 6.096 137.132 6.096C136.663 6.096 136.315 6.19733 136.087 6.4C135.859 6.59 135.745 6.83067 135.745 7.122C135.745 7.48933 135.935 7.768 136.315 7.958C136.695 8.148 137.138 8.33167 137.645 8.509C138.076 8.661 138.494 8.851 138.899 9.079C139.304 9.29433 139.64 9.57933 139.906 9.934C140.185 10.2887 140.324 10.7573 140.324 11.34C140.324 12.138 140.014 12.822 139.393 13.392C138.772 13.9493 137.873 14.228 136.695 14.228ZM145.543 14.228C144.377 14.228 143.446 13.7973 142.75 12.936C142.053 12.0747 141.705 10.8777 141.705 9.345C141.705 8.33167 141.888 7.45767 142.256 6.723C142.636 5.98833 143.13 5.42467 143.738 5.032C144.346 4.63933 144.985 4.443 145.657 4.443C146.189 4.443 146.638 4.538 147.006 4.728C147.386 4.90533 147.753 5.15233 148.108 5.469L148.032 3.968V0.585999H150.217V14H148.412L148.26 12.993H148.184C147.842 13.335 147.443 13.6263 146.987 13.867C146.531 14.1077 146.049 14.228 145.543 14.228ZM146.075 12.423C146.771 12.423 147.424 12.0747 148.032 11.378V7.027C147.715 6.73567 147.398 6.533 147.082 6.419C146.765 6.305 146.448 6.248 146.132 6.248C145.536 6.248 145.023 6.52033 144.593 7.065C144.175 7.597 143.966 8.35067 143.966 9.326C143.966 10.3267 144.149 11.093 144.517 11.625C144.884 12.157 145.403 12.423 146.075 12.423ZM156.989 14.228C156.128 14.228 155.349 14.038 154.652 13.658C153.956 13.2653 153.405 12.708 152.999 11.986C152.594 11.2513 152.391 10.371 152.391 9.345C152.391 8.33167 152.594 7.45767 152.999 6.723C153.417 5.98833 153.956 5.42467 154.614 5.032C155.273 4.63933 155.963 4.443 156.685 4.443C157.534 4.443 158.243 4.633 158.813 5.013C159.383 5.38033 159.814 5.89967 160.105 6.571C160.397 7.22967 160.542 7.996 160.542 8.87C160.542 9.326 160.511 9.68067 160.447 9.934H154.519C154.621 10.7573 154.918 11.397 155.412 11.853C155.906 12.309 156.527 12.537 157.274 12.537C157.68 12.537 158.053 12.48 158.395 12.366C158.75 12.2393 159.098 12.0683 159.44 11.853L160.181 13.221C159.738 13.5123 159.244 13.753 158.699 13.943C158.155 14.133 157.585 14.228 156.989 14.228ZM154.5 8.452H158.642C158.642 7.73 158.484 7.16633 158.167 6.761C157.851 6.343 157.376 6.134 156.742 6.134C156.198 6.134 155.71 6.33667 155.279 6.742C154.861 7.13467 154.602 7.70467 154.5 8.452ZM164.719 14L161.47 4.671H163.693L165.175 9.516C165.302 9.972 165.429 10.4343 165.555 10.903C165.695 11.3717 165.828 11.8467 165.954 12.328H166.03C166.17 11.8467 166.303 11.3717 166.429 10.903C166.569 10.4343 166.702 9.972 166.828 9.516L168.31 4.671H170.419L167.246 14H164.719Z" fill="white"/>
</svg>
